<?xml version="1.0" standalone="no"?>
<!DOCTYPE svg PUBLIC "-//W3C//DTD SVG 20010904//EN"
 "http://www.w3.org/TR/2001/REC-SVG-20010904/DTD/svg10.dtd">
<svg version="1.0" xmlns="http://www.w3.org/2000/svg"
 width="110.000000pt" height="84.000000pt" viewBox="0 0 110.000000 84.000000"
 preserveAspectRatio="xMidYMid meet">
<metadata>
Created by potrace 1.15, written by Peter Selinger 2001-2017
</metadata>
<g transform="translate(0.000000,84.000000) scale(0.100000,-0.100000)"
fill="#000000" stroke="none">
<path d="M67 773 c-11 -11 -8 -361 3 -368 6 -3 19 -3 30 0 19 6 20 15 20 168
0 93 4 157 9 152 5 -6 32 -79 61 -162 53 -153 65 -172 102 -158 9 4 27 39 42
78 14 40 40 113 58 162 l33 90 3 -162 c2 -154 4 -162 23 -168 12 -4 25 -3 30
2 5 5 8 88 7 189 l-3 179 -29 3 c-64 8 -70 1 -121 -135 -26 -71 -50 -130 -52
-133 -7 -8 -21 22 -59 130 -20 58 -44 113 -52 123 -15 17 -91 25 -105 10z"/>
<path d="M604 767 c-2 -7 -3 -91 -2 -187 l3 -175 25 0 c24 0 25 2 28 78 l3 78
37 -3 c35 -3 39 -6 72 -76 35 -73 67 -99 92 -74 12 12 -31 114 -65 151 -18 19
-19 25 -8 29 8 3 25 15 38 28 51 51 17 143 -58 158 -57 11 -159 7 -165 -7z"/>
</g>
</svg>
